<mxfile host="Electron" modified="2023-10-16T13:27:24.429Z" agent="Mozilla/5.0 (Windows NT 10.0; Win64; x64) AppleWebKit/537.36 (KHTML, like Gecko) draw.io/22.0.2 Chrome/114.0.5735.289 Electron/25.8.4 Safari/537.36" etag="hIjUOxUMMJIPNqiBwUFP" version="22.0.2" type="device">
  <diagram name="Page-1" id="2YGdl-X15_tePABY36Fy">
    <mxGraphModel dx="1430" dy="830" grid="1" gridSize="10" guides="1" tooltips="1" connect="1" arrows="1" fold="1" page="1" pageScale="1" pageWidth="1160" pageHeight="800" math="1" shadow="0">
      <root>
        <mxCell id="0" />
        <mxCell id="1" parent="0" />
        <mxCell id="ui8sLW4CjAqMK8sw_6YP-1" value="User Service" style="rounded=1;whiteSpace=wrap;html=1;fillColor=#fff2cc;strokeColor=#d6b656;" parent="1" vertex="1">
          <mxGeometry x="40" y="360" width="120" height="40" as="geometry" />
        </mxCell>
        <mxCell id="ui8sLW4CjAqMK8sw_6YP-2" value="Vault Service" style="rounded=1;whiteSpace=wrap;html=1;fillColor=#fff2cc;strokeColor=#d6b656;" parent="1" vertex="1">
          <mxGeometry x="200" y="360" width="120" height="40" as="geometry" />
        </mxCell>
        <mxCell id="ui8sLW4CjAqMK8sw_6YP-3" value="Notification Service" style="rounded=1;whiteSpace=wrap;html=1;fillColor=#fff2cc;strokeColor=#d6b656;" parent="1" vertex="1">
          <mxGeometry x="360" y="360" width="120" height="40" as="geometry" />
        </mxCell>
        <mxCell id="ui8sLW4CjAqMK8sw_6YP-4" value="Service Bus" style="rounded=1;whiteSpace=wrap;html=1;fillColor=#dae8fc;strokeColor=#6c8ebf;" parent="1" vertex="1">
          <mxGeometry x="10" y="480" width="1140" height="40" as="geometry" />
        </mxCell>
        <mxCell id="ui8sLW4CjAqMK8sw_6YP-5" value="Web DB" style="shape=cylinder3;whiteSpace=wrap;html=1;boundedLbl=1;backgroundOutline=1;size=15;" parent="1" vertex="1">
          <mxGeometry x="70" y="200" width="60" height="80" as="geometry" />
        </mxCell>
        <mxCell id="ui8sLW4CjAqMK8sw_6YP-7" value="Vault DB" style="shape=cylinder3;whiteSpace=wrap;html=1;boundedLbl=1;backgroundOutline=1;size=15;" parent="1" vertex="1">
          <mxGeometry x="230" y="200" width="60" height="80" as="geometry" />
        </mxCell>
        <mxCell id="ui8sLW4CjAqMK8sw_6YP-8" value="Notification DB" style="shape=cylinder3;whiteSpace=wrap;html=1;boundedLbl=1;backgroundOutline=1;size=15;" parent="1" vertex="1">
          <mxGeometry x="390" y="200" width="60" height="80" as="geometry" />
        </mxCell>
        <mxCell id="ui8sLW4CjAqMK8sw_6YP-9" value="Deadman Switch Failed" style="text;html=1;align=center;verticalAlign=middle;resizable=0;points=[];autosize=1;strokeColor=none;fillColor=none;rounded=0;shadow=0;glass=0;fontSize=24;fontStyle=1" parent="1" vertex="1">
          <mxGeometry x="440" y="10" width="290" height="40" as="geometry" />
        </mxCell>
        <mxCell id="ui8sLW4CjAqMK8sw_6YP-10" value="&lt;span style=&quot;font-weight: normal;&quot;&gt;&lt;font style=&quot;font-size: 16px;&quot;&gt;System Architecture Diagram&lt;/font&gt;&lt;/span&gt;" style="text;html=1;align=center;verticalAlign=middle;resizable=0;points=[];autosize=1;strokeColor=none;fillColor=none;rounded=0;shadow=0;glass=0;fontSize=24;fontStyle=1" parent="1" vertex="1">
          <mxGeometry x="470" y="36" width="230" height="40" as="geometry" />
        </mxCell>
        <mxCell id="ui8sLW4CjAqMK8sw_6YP-13" value="" style="endArrow=classic;startArrow=classic;html=1;rounded=0;" parent="1" source="ui8sLW4CjAqMK8sw_6YP-1" target="ui8sLW4CjAqMK8sw_6YP-5" edge="1">
          <mxGeometry width="50" height="50" relative="1" as="geometry">
            <mxPoint x="70" y="340" as="sourcePoint" />
            <mxPoint x="120" y="290" as="targetPoint" />
          </mxGeometry>
        </mxCell>
        <mxCell id="ui8sLW4CjAqMK8sw_6YP-14" value="" style="endArrow=classic;startArrow=classic;html=1;rounded=0;" parent="1" source="ui8sLW4CjAqMK8sw_6YP-2" target="ui8sLW4CjAqMK8sw_6YP-7" edge="1">
          <mxGeometry width="50" height="50" relative="1" as="geometry">
            <mxPoint x="110" y="370" as="sourcePoint" />
            <mxPoint x="110" y="290" as="targetPoint" />
          </mxGeometry>
        </mxCell>
        <mxCell id="ui8sLW4CjAqMK8sw_6YP-15" value="" style="endArrow=classic;startArrow=classic;html=1;rounded=0;labelBorderColor=#FFFFFF;" parent="1" source="ui8sLW4CjAqMK8sw_6YP-3" target="ui8sLW4CjAqMK8sw_6YP-8" edge="1">
          <mxGeometry width="50" height="50" relative="1" as="geometry">
            <mxPoint x="120" y="380" as="sourcePoint" />
            <mxPoint x="120" y="300" as="targetPoint" />
          </mxGeometry>
        </mxCell>
        <mxCell id="ui8sLW4CjAqMK8sw_6YP-18" value="" style="endArrow=classic;html=1;rounded=0;entryX=0.25;entryY=1;entryDx=0;entryDy=0;exitX=0.052;exitY=0;exitDx=0;exitDy=0;exitPerimeter=0;" parent="1" source="ui8sLW4CjAqMK8sw_6YP-4" target="ui8sLW4CjAqMK8sw_6YP-1" edge="1">
          <mxGeometry width="50" height="50" relative="1" as="geometry">
            <mxPoint x="-20" y="450" as="sourcePoint" />
            <mxPoint x="30" y="400" as="targetPoint" />
          </mxGeometry>
        </mxCell>
        <mxCell id="ui8sLW4CjAqMK8sw_6YP-19" value="" style="endArrow=classic;html=1;rounded=0;exitX=0.75;exitY=1;exitDx=0;exitDy=0;" parent="1" source="ui8sLW4CjAqMK8sw_6YP-1" edge="1">
          <mxGeometry width="50" height="50" relative="1" as="geometry">
            <mxPoint x="80" y="490" as="sourcePoint" />
            <mxPoint x="130" y="480" as="targetPoint" />
          </mxGeometry>
        </mxCell>
        <mxCell id="ui8sLW4CjAqMK8sw_6YP-20" value="" style="endArrow=classic;html=1;rounded=0;entryX=0.25;entryY=1;entryDx=0;entryDy=0;exitX=0.072;exitY=0;exitDx=0;exitDy=0;exitPerimeter=0;" parent="1" edge="1">
          <mxGeometry width="50" height="50" relative="1" as="geometry">
            <mxPoint x="229.43" y="480" as="sourcePoint" />
            <mxPoint x="229.43" y="400" as="targetPoint" />
          </mxGeometry>
        </mxCell>
        <mxCell id="ui8sLW4CjAqMK8sw_6YP-21" value="" style="endArrow=classic;html=1;rounded=0;exitX=0.75;exitY=1;exitDx=0;exitDy=0;" parent="1" edge="1">
          <mxGeometry width="50" height="50" relative="1" as="geometry">
            <mxPoint x="289.43" y="400" as="sourcePoint" />
            <mxPoint x="289.43" y="480" as="targetPoint" />
          </mxGeometry>
        </mxCell>
        <mxCell id="ui8sLW4CjAqMK8sw_6YP-22" value="" style="endArrow=classic;html=1;rounded=0;entryX=0.25;entryY=1;entryDx=0;entryDy=0;exitX=0.072;exitY=0;exitDx=0;exitDy=0;exitPerimeter=0;" parent="1" edge="1">
          <mxGeometry width="50" height="50" relative="1" as="geometry">
            <mxPoint x="389.43" y="480" as="sourcePoint" />
            <mxPoint x="389.43" y="400" as="targetPoint" />
          </mxGeometry>
        </mxCell>
        <mxCell id="ui8sLW4CjAqMK8sw_6YP-23" value="" style="endArrow=classic;html=1;rounded=0;exitX=0.75;exitY=1;exitDx=0;exitDy=0;" parent="1" edge="1">
          <mxGeometry width="50" height="50" relative="1" as="geometry">
            <mxPoint x="449.43" y="400" as="sourcePoint" />
            <mxPoint x="449.43" y="480" as="targetPoint" />
          </mxGeometry>
        </mxCell>
        <mxCell id="ui8sLW4CjAqMK8sw_6YP-26" value="Deadman Switch Failed" style="text;html=1;align=center;verticalAlign=middle;resizable=0;points=[];autosize=1;strokeColor=none;fillColor=none;rounded=0;shadow=0;glass=0;fontSize=24;fontStyle=1" parent="1" vertex="1">
          <mxGeometry x="1609" y="10" width="290" height="40" as="geometry" />
        </mxCell>
        <mxCell id="ui8sLW4CjAqMK8sw_6YP-27" value="&lt;span style=&quot;font-weight: normal;&quot;&gt;&lt;font style=&quot;font-size: 16px;&quot;&gt;Database Diagram&lt;/font&gt;&lt;/span&gt;" style="text;html=1;align=center;verticalAlign=middle;resizable=0;points=[];autosize=1;strokeColor=none;fillColor=none;rounded=0;shadow=0;glass=0;fontSize=24;fontStyle=1" parent="1" vertex="1">
          <mxGeometry x="1674" y="36" width="160" height="40" as="geometry" />
        </mxCell>
        <mxCell id="Cj7RUKxoyTummyb_r4Sp-1" value="Web Page" style="rounded=1;whiteSpace=wrap;html=1;fillColor=#d5e8d4;strokeColor=#82b366;" parent="1" vertex="1">
          <mxGeometry x="360" y="120" width="120" height="40" as="geometry" />
        </mxCell>
        <mxCell id="Cj7RUKxoyTummyb_r4Sp-10" value="User Service" style="text;html=1;align=left;verticalAlign=middle;resizable=0;points=[];autosize=1;strokeColor=none;fillColor=none;rounded=0;shadow=0;glass=0;fontSize=20;fontStyle=1" parent="1" vertex="1">
          <mxGeometry x="1200" y="80" width="140" height="40" as="geometry" />
        </mxCell>
        <mxCell id="Cj7RUKxoyTummyb_r4Sp-11" value="User" style="swimlane;fontStyle=1;align=center;verticalAlign=top;childLayout=stackLayout;horizontal=1;startSize=26;horizontalStack=0;resizeParent=1;resizeParentMax=0;resizeLast=0;collapsible=1;marginBottom=0;whiteSpace=wrap;html=1;" parent="1" vertex="1">
          <mxGeometry x="1200" y="160" width="160" height="124" as="geometry" />
        </mxCell>
        <mxCell id="Cj7RUKxoyTummyb_r4Sp-12" value="+ id: UserId&lt;br&gt;+ displayName: string&lt;br&gt;+ userName: string&lt;br&gt;+ passwordHash: string" style="text;strokeColor=none;fillColor=none;align=left;verticalAlign=top;spacingLeft=4;spacingRight=4;overflow=hidden;rotatable=0;points=[[0,0.5],[1,0.5]];portConstraint=eastwest;whiteSpace=wrap;html=1;" parent="Cj7RUKxoyTummyb_r4Sp-11" vertex="1">
          <mxGeometry y="26" width="160" height="64" as="geometry" />
        </mxCell>
        <mxCell id="Cj7RUKxoyTummyb_r4Sp-13" value="" style="line;strokeWidth=1;fillColor=none;align=left;verticalAlign=middle;spacingTop=-1;spacingLeft=3;spacingRight=3;rotatable=0;labelPosition=right;points=[];portConstraint=eastwest;strokeColor=inherit;" parent="Cj7RUKxoyTummyb_r4Sp-11" vertex="1">
          <mxGeometry y="90" width="160" height="8" as="geometry" />
        </mxCell>
        <mxCell id="Cj7RUKxoyTummyb_r4Sp-14" value="&amp;nbsp;" style="text;strokeColor=none;fillColor=none;align=left;verticalAlign=top;spacingLeft=4;spacingRight=4;overflow=hidden;rotatable=0;points=[[0,0.5],[1,0.5]];portConstraint=eastwest;whiteSpace=wrap;html=1;" parent="Cj7RUKxoyTummyb_r4Sp-11" vertex="1">
          <mxGeometry y="98" width="160" height="26" as="geometry" />
        </mxCell>
        <mxCell id="TEZOHbHOSB_OMv-VC6Ly-8" value="Deadman Switch Failed" style="text;html=1;align=center;verticalAlign=middle;resizable=0;points=[];autosize=1;strokeColor=none;fillColor=none;rounded=0;shadow=0;glass=0;fontSize=24;fontStyle=1" parent="1" vertex="1">
          <mxGeometry x="435" y="810" width="290" height="40" as="geometry" />
        </mxCell>
        <mxCell id="TEZOHbHOSB_OMv-VC6Ly-9" value="&lt;span style=&quot;font-weight: normal;&quot;&gt;&lt;font style=&quot;font-size: 16px;&quot;&gt;Service Bus Message Diagram - Outdated - revamp&lt;br&gt;&lt;/font&gt;&lt;/span&gt;" style="text;html=1;align=center;verticalAlign=middle;resizable=0;points=[];autosize=1;strokeColor=none;fillColor=none;rounded=0;shadow=0;glass=0;fontSize=24;fontStyle=1" parent="1" vertex="1">
          <mxGeometry x="385" y="836" width="390" height="40" as="geometry" />
        </mxCell>
        <mxCell id="TEZOHbHOSB_OMv-VC6Ly-33" value="Web Service" style="rounded=1;whiteSpace=wrap;html=1;fillColor=#fff2cc;strokeColor=#d6b656;" parent="1" vertex="1">
          <mxGeometry x="40" y="880" width="120" height="40" as="geometry" />
        </mxCell>
        <mxCell id="TEZOHbHOSB_OMv-VC6Ly-34" value="Vault Service" style="rounded=1;whiteSpace=wrap;html=1;fillColor=#fff2cc;strokeColor=#d6b656;" parent="1" vertex="1">
          <mxGeometry x="200" y="880" width="120" height="40" as="geometry" />
        </mxCell>
        <mxCell id="TEZOHbHOSB_OMv-VC6Ly-35" value="Notification Service" style="rounded=1;whiteSpace=wrap;html=1;fillColor=#fff2cc;strokeColor=#d6b656;" parent="1" vertex="1">
          <mxGeometry x="360" y="880" width="120" height="40" as="geometry" />
        </mxCell>
        <mxCell id="TEZOHbHOSB_OMv-VC6Ly-44" style="edgeStyle=orthogonalEdgeStyle;rounded=0;orthogonalLoop=1;jettySize=auto;html=1;entryX=0.25;entryY=1;entryDx=0;entryDy=0;" parent="1" source="TEZOHbHOSB_OMv-VC6Ly-36" target="TEZOHbHOSB_OMv-VC6Ly-34" edge="1">
          <mxGeometry relative="1" as="geometry">
            <Array as="points">
              <mxPoint x="230" y="1410" />
              <mxPoint x="230" y="1410" />
            </Array>
          </mxGeometry>
        </mxCell>
        <mxCell id="TEZOHbHOSB_OMv-VC6Ly-45" style="edgeStyle=orthogonalEdgeStyle;rounded=0;orthogonalLoop=1;jettySize=auto;html=1;entryX=0.25;entryY=1;entryDx=0;entryDy=0;" parent="1" source="TEZOHbHOSB_OMv-VC6Ly-36" target="TEZOHbHOSB_OMv-VC6Ly-35" edge="1">
          <mxGeometry relative="1" as="geometry">
            <Array as="points">
              <mxPoint x="390" y="1380" />
              <mxPoint x="390" y="1380" />
            </Array>
          </mxGeometry>
        </mxCell>
        <mxCell id="TEZOHbHOSB_OMv-VC6Ly-36" value="Service Bus" style="rounded=1;whiteSpace=wrap;html=1;fillColor=#dae8fc;strokeColor=#6c8ebf;" parent="1" vertex="1">
          <mxGeometry x="10" y="1520" width="1140" height="40" as="geometry" />
        </mxCell>
        <mxCell id="TEZOHbHOSB_OMv-VC6Ly-37" value="" style="endArrow=classic;html=1;rounded=0;entryX=0.25;entryY=1;entryDx=0;entryDy=0;exitX=0.052;exitY=0;exitDx=0;exitDy=0;exitPerimeter=0;" parent="1" source="TEZOHbHOSB_OMv-VC6Ly-36" target="TEZOHbHOSB_OMv-VC6Ly-33" edge="1">
          <mxGeometry width="50" height="50" relative="1" as="geometry">
            <mxPoint x="-20" y="1490" as="sourcePoint" />
            <mxPoint x="30" y="1440" as="targetPoint" />
          </mxGeometry>
        </mxCell>
        <mxCell id="TEZOHbHOSB_OMv-VC6Ly-38" value="" style="endArrow=classic;html=1;rounded=0;exitX=0.75;exitY=1;exitDx=0;exitDy=0;" parent="1" source="TEZOHbHOSB_OMv-VC6Ly-33" edge="1">
          <mxGeometry width="50" height="50" relative="1" as="geometry">
            <mxPoint x="80" y="1530" as="sourcePoint" />
            <mxPoint x="130" y="1520" as="targetPoint" />
          </mxGeometry>
        </mxCell>
        <mxCell id="TEZOHbHOSB_OMv-VC6Ly-43" style="edgeStyle=orthogonalEdgeStyle;rounded=0;orthogonalLoop=1;jettySize=auto;html=1;exitX=0.75;exitY=1;exitDx=0;exitDy=0;entryX=0.245;entryY=0.025;entryDx=0;entryDy=0;entryPerimeter=0;" parent="1" source="TEZOHbHOSB_OMv-VC6Ly-34" target="TEZOHbHOSB_OMv-VC6Ly-36" edge="1">
          <mxGeometry relative="1" as="geometry" />
        </mxCell>
        <mxCell id="TEZOHbHOSB_OMv-VC6Ly-46" style="edgeStyle=orthogonalEdgeStyle;rounded=0;orthogonalLoop=1;jettySize=auto;html=1;exitX=0.75;exitY=1;exitDx=0;exitDy=0;entryX=0.386;entryY=-0.05;entryDx=0;entryDy=0;entryPerimeter=0;" parent="1" source="TEZOHbHOSB_OMv-VC6Ly-35" target="TEZOHbHOSB_OMv-VC6Ly-36" edge="1">
          <mxGeometry relative="1" as="geometry" />
        </mxCell>
        <mxCell id="TEZOHbHOSB_OMv-VC6Ly-47" value="Events" style="swimlane;fontStyle=0;childLayout=stackLayout;horizontal=1;startSize=30;horizontalStack=0;resizeParent=1;resizeParentMax=0;resizeLast=0;collapsible=1;marginBottom=0;whiteSpace=wrap;html=1;fillColor=#FFFFFF;" parent="1" vertex="1">
          <mxGeometry x="30" y="960" width="80" height="60" as="geometry" />
        </mxCell>
        <mxCell id="TEZOHbHOSB_OMv-VC6Ly-48" value="NotifSent" style="text;strokeColor=#666666;fillColor=#f5f5f5;align=left;verticalAlign=middle;spacingLeft=4;spacingRight=4;overflow=hidden;points=[[0,0.5],[1,0.5]];portConstraint=eastwest;rotatable=0;whiteSpace=wrap;html=1;fontColor=#333333;fontSize=10;" parent="TEZOHbHOSB_OMv-VC6Ly-47" vertex="1">
          <mxGeometry y="30" width="80" height="30" as="geometry" />
        </mxCell>
        <mxCell id="TEZOHbHOSB_OMv-VC6Ly-55" value="Events" style="swimlane;fontStyle=0;childLayout=stackLayout;horizontal=1;startSize=30;horizontalStack=0;resizeParent=1;resizeParentMax=0;resizeLast=0;collapsible=1;marginBottom=0;whiteSpace=wrap;html=1;fillColor=#FFFFFF;" parent="1" vertex="1">
          <mxGeometry x="90" y="1240" width="80" height="180" as="geometry" />
        </mxCell>
        <mxCell id="TEZOHbHOSB_OMv-VC6Ly-56" value="VaultCreated" style="text;strokeColor=#666666;fillColor=#f5f5f5;align=left;verticalAlign=middle;spacingLeft=4;spacingRight=4;overflow=hidden;points=[[0,0.5],[1,0.5]];portConstraint=eastwest;rotatable=0;whiteSpace=wrap;html=1;fontColor=#333333;fontSize=10;" parent="TEZOHbHOSB_OMv-VC6Ly-55" vertex="1">
          <mxGeometry y="30" width="80" height="30" as="geometry" />
        </mxCell>
        <mxCell id="TEZOHbHOSB_OMv-VC6Ly-57" value="NotifCreated" style="text;strokeColor=#666666;fillColor=#f5f5f5;align=left;verticalAlign=middle;spacingLeft=4;spacingRight=4;overflow=hidden;points=[[0,0.5],[1,0.5]];portConstraint=eastwest;rotatable=0;whiteSpace=wrap;html=1;fontColor=#333333;fontSize=10;" parent="TEZOHbHOSB_OMv-VC6Ly-55" vertex="1">
          <mxGeometry y="60" width="80" height="30" as="geometry" />
        </mxCell>
        <mxCell id="TEZOHbHOSB_OMv-VC6Ly-58" value="VaultUnlocked" style="text;strokeColor=#666666;fillColor=#f5f5f5;align=left;verticalAlign=middle;spacingLeft=4;spacingRight=4;overflow=hidden;points=[[0,0.5],[1,0.5]];portConstraint=eastwest;rotatable=0;whiteSpace=wrap;html=1;fontColor=#333333;fontSize=10;" parent="TEZOHbHOSB_OMv-VC6Ly-55" vertex="1">
          <mxGeometry y="90" width="80" height="30" as="geometry" />
        </mxCell>
        <mxCell id="TEZOHbHOSB_OMv-VC6Ly-60" value="MsgCreated" style="text;strokeColor=#666666;fillColor=#f5f5f5;align=left;verticalAlign=middle;spacingLeft=4;spacingRight=4;overflow=hidden;points=[[0,0.5],[1,0.5]];portConstraint=eastwest;rotatable=0;whiteSpace=wrap;html=1;fontColor=#333333;fontSize=10;" parent="TEZOHbHOSB_OMv-VC6Ly-55" vertex="1">
          <mxGeometry y="120" width="80" height="30" as="geometry" />
        </mxCell>
        <mxCell id="TEZOHbHOSB_OMv-VC6Ly-78" value="GetVault" style="text;strokeColor=#666666;fillColor=#f5f5f5;align=left;verticalAlign=middle;spacingLeft=4;spacingRight=4;overflow=hidden;points=[[0,0.5],[1,0.5]];portConstraint=eastwest;rotatable=0;whiteSpace=wrap;html=1;fontColor=#333333;fontSize=10;" parent="TEZOHbHOSB_OMv-VC6Ly-55" vertex="1">
          <mxGeometry y="150" width="80" height="30" as="geometry" />
        </mxCell>
        <mxCell id="TEZOHbHOSB_OMv-VC6Ly-61" value="Events" style="swimlane;fontStyle=0;childLayout=stackLayout;horizontal=1;startSize=30;horizontalStack=0;resizeParent=1;resizeParentMax=0;resizeLast=0;collapsible=1;marginBottom=0;whiteSpace=wrap;html=1;fillColor=#FFFFFF;" parent="1" vertex="1">
          <mxGeometry x="190" y="960" width="80" height="150" as="geometry" />
        </mxCell>
        <mxCell id="TEZOHbHOSB_OMv-VC6Ly-62" value="VaultCreated" style="text;strokeColor=#666666;fillColor=#f5f5f5;align=left;verticalAlign=middle;spacingLeft=4;spacingRight=4;overflow=hidden;points=[[0,0.5],[1,0.5]];portConstraint=eastwest;rotatable=0;whiteSpace=wrap;html=1;fontColor=#333333;fontSize=10;" parent="TEZOHbHOSB_OMv-VC6Ly-61" vertex="1">
          <mxGeometry y="30" width="80" height="30" as="geometry" />
        </mxCell>
        <mxCell id="TEZOHbHOSB_OMv-VC6Ly-68" value="VaultUnlocked" style="text;strokeColor=#666666;fillColor=#f5f5f5;align=left;verticalAlign=middle;spacingLeft=4;spacingRight=4;overflow=hidden;points=[[0,0.5],[1,0.5]];portConstraint=eastwest;rotatable=0;whiteSpace=wrap;html=1;fontColor=#333333;fontSize=10;" parent="TEZOHbHOSB_OMv-VC6Ly-61" vertex="1">
          <mxGeometry y="60" width="80" height="30" as="geometry" />
        </mxCell>
        <mxCell id="TEZOHbHOSB_OMv-VC6Ly-69" value="MsgCreated" style="text;strokeColor=#666666;fillColor=#f5f5f5;align=left;verticalAlign=middle;spacingLeft=4;spacingRight=4;overflow=hidden;points=[[0,0.5],[1,0.5]];portConstraint=eastwest;rotatable=0;whiteSpace=wrap;html=1;fontColor=#333333;fontSize=10;" parent="TEZOHbHOSB_OMv-VC6Ly-61" vertex="1">
          <mxGeometry y="90" width="80" height="30" as="geometry" />
        </mxCell>
        <mxCell id="TEZOHbHOSB_OMv-VC6Ly-79" value="GetVault" style="text;strokeColor=#666666;fillColor=#f5f5f5;align=left;verticalAlign=middle;spacingLeft=4;spacingRight=4;overflow=hidden;points=[[0,0.5],[1,0.5]];portConstraint=eastwest;rotatable=0;whiteSpace=wrap;html=1;fontColor=#333333;fontSize=10;" parent="TEZOHbHOSB_OMv-VC6Ly-61" vertex="1">
          <mxGeometry y="120" width="80" height="30" as="geometry" />
        </mxCell>
        <mxCell id="TEZOHbHOSB_OMv-VC6Ly-63" value="Events" style="swimlane;fontStyle=0;childLayout=stackLayout;horizontal=1;startSize=30;horizontalStack=0;resizeParent=1;resizeParentMax=0;resizeLast=0;collapsible=1;marginBottom=0;whiteSpace=wrap;html=1;fillColor=#FFFFFF;" parent="1" vertex="1">
          <mxGeometry x="250" y="1240" width="80" height="120" as="geometry" />
        </mxCell>
        <mxCell id="TEZOHbHOSB_OMv-VC6Ly-67" value="MsgUnlocked" style="text;strokeColor=#666666;fillColor=#f5f5f5;align=left;verticalAlign=middle;spacingLeft=4;spacingRight=4;overflow=hidden;points=[[0,0.5],[1,0.5]];portConstraint=eastwest;rotatable=0;whiteSpace=wrap;html=1;fontColor=#333333;fontSize=10;" parent="TEZOHbHOSB_OMv-VC6Ly-63" vertex="1">
          <mxGeometry y="30" width="80" height="30" as="geometry" />
        </mxCell>
        <mxCell id="TEZOHbHOSB_OMv-VC6Ly-70" value="SendNotif" style="text;strokeColor=#666666;fillColor=#f5f5f5;align=left;verticalAlign=middle;spacingLeft=4;spacingRight=4;overflow=hidden;points=[[0,0.5],[1,0.5]];portConstraint=eastwest;rotatable=0;whiteSpace=wrap;html=1;fontColor=#333333;fontSize=10;" parent="TEZOHbHOSB_OMv-VC6Ly-63" vertex="1">
          <mxGeometry y="60" width="80" height="30" as="geometry" />
        </mxCell>
        <mxCell id="TEZOHbHOSB_OMv-VC6Ly-80" value="GetNotif" style="text;strokeColor=#666666;fillColor=#f5f5f5;align=left;verticalAlign=middle;spacingLeft=4;spacingRight=4;overflow=hidden;points=[[0,0.5],[1,0.5]];portConstraint=eastwest;rotatable=0;whiteSpace=wrap;html=1;fontColor=#333333;fontSize=10;" parent="TEZOHbHOSB_OMv-VC6Ly-63" vertex="1">
          <mxGeometry y="90" width="80" height="30" as="geometry" />
        </mxCell>
        <mxCell id="TEZOHbHOSB_OMv-VC6Ly-71" value="Events" style="swimlane;fontStyle=0;childLayout=stackLayout;horizontal=1;startSize=30;horizontalStack=0;resizeParent=1;resizeParentMax=0;resizeLast=0;collapsible=1;marginBottom=0;whiteSpace=wrap;html=1;fillColor=#FFFFFF;" parent="1" vertex="1">
          <mxGeometry x="350" y="960" width="80" height="120" as="geometry" />
        </mxCell>
        <mxCell id="TEZOHbHOSB_OMv-VC6Ly-72" value="SendNotif" style="text;strokeColor=#666666;fillColor=#f5f5f5;align=left;verticalAlign=middle;spacingLeft=4;spacingRight=4;overflow=hidden;points=[[0,0.5],[1,0.5]];portConstraint=eastwest;rotatable=0;whiteSpace=wrap;html=1;fontColor=#333333;fontSize=10;" parent="TEZOHbHOSB_OMv-VC6Ly-71" vertex="1">
          <mxGeometry y="30" width="80" height="30" as="geometry" />
        </mxCell>
        <mxCell id="TEZOHbHOSB_OMv-VC6Ly-74" value="NotifCreated" style="text;strokeColor=#666666;fillColor=#f5f5f5;align=left;verticalAlign=middle;spacingLeft=4;spacingRight=4;overflow=hidden;points=[[0,0.5],[1,0.5]];portConstraint=eastwest;rotatable=0;whiteSpace=wrap;html=1;fontColor=#333333;fontSize=10;" parent="TEZOHbHOSB_OMv-VC6Ly-71" vertex="1">
          <mxGeometry y="60" width="80" height="30" as="geometry" />
        </mxCell>
        <mxCell id="TEZOHbHOSB_OMv-VC6Ly-81" value="GetNotif" style="text;strokeColor=#666666;fillColor=#f5f5f5;align=left;verticalAlign=middle;spacingLeft=4;spacingRight=4;overflow=hidden;points=[[0,0.5],[1,0.5]];portConstraint=eastwest;rotatable=0;whiteSpace=wrap;html=1;fontColor=#333333;fontSize=10;" parent="TEZOHbHOSB_OMv-VC6Ly-71" vertex="1">
          <mxGeometry y="90" width="80" height="30" as="geometry" />
        </mxCell>
        <mxCell id="TEZOHbHOSB_OMv-VC6Ly-75" value="Events" style="swimlane;fontStyle=0;childLayout=stackLayout;horizontal=1;startSize=30;horizontalStack=0;resizeParent=1;resizeParentMax=0;resizeLast=0;collapsible=1;marginBottom=0;whiteSpace=wrap;html=1;fillColor=#FFFFFF;" parent="1" vertex="1">
          <mxGeometry x="410" y="1240" width="80" height="60" as="geometry" />
        </mxCell>
        <mxCell id="TEZOHbHOSB_OMv-VC6Ly-76" value="NotifSent" style="text;strokeColor=#666666;fillColor=#f5f5f5;align=left;verticalAlign=middle;spacingLeft=4;spacingRight=4;overflow=hidden;points=[[0,0.5],[1,0.5]];portConstraint=eastwest;rotatable=0;whiteSpace=wrap;html=1;fontColor=#333333;fontSize=10;" parent="TEZOHbHOSB_OMv-VC6Ly-75" vertex="1">
          <mxGeometry y="30" width="80" height="30" as="geometry" />
        </mxCell>
        <mxCell id="TEZOHbHOSB_OMv-VC6Ly-82" value="ActiveLogin" style="swimlane;fontStyle=1;align=center;verticalAlign=top;childLayout=stackLayout;horizontal=1;startSize=26;horizontalStack=0;resizeParent=1;resizeParentMax=0;resizeLast=0;collapsible=1;marginBottom=0;whiteSpace=wrap;html=1;" parent="1" vertex="1">
          <mxGeometry x="1400" y="165" width="160" height="114" as="geometry" />
        </mxCell>
        <mxCell id="TEZOHbHOSB_OMv-VC6Ly-83" value="+ id: LoginId&lt;br&gt;+ authToken: string&lt;br&gt;+ expiry: DateTime" style="text;strokeColor=none;fillColor=none;align=left;verticalAlign=top;spacingLeft=4;spacingRight=4;overflow=hidden;rotatable=0;points=[[0,0.5],[1,0.5]];portConstraint=eastwest;whiteSpace=wrap;html=1;" parent="TEZOHbHOSB_OMv-VC6Ly-82" vertex="1">
          <mxGeometry y="26" width="160" height="54" as="geometry" />
        </mxCell>
        <mxCell id="TEZOHbHOSB_OMv-VC6Ly-84" value="" style="line;strokeWidth=1;fillColor=none;align=left;verticalAlign=middle;spacingTop=-1;spacingLeft=3;spacingRight=3;rotatable=0;labelPosition=right;points=[];portConstraint=eastwest;strokeColor=inherit;" parent="TEZOHbHOSB_OMv-VC6Ly-82" vertex="1">
          <mxGeometry y="80" width="160" height="8" as="geometry" />
        </mxCell>
        <mxCell id="TEZOHbHOSB_OMv-VC6Ly-85" value="&amp;nbsp;" style="text;strokeColor=none;fillColor=none;align=left;verticalAlign=top;spacingLeft=4;spacingRight=4;overflow=hidden;rotatable=0;points=[[0,0.5],[1,0.5]];portConstraint=eastwest;whiteSpace=wrap;html=1;" parent="TEZOHbHOSB_OMv-VC6Ly-82" vertex="1">
          <mxGeometry y="88" width="160" height="26" as="geometry" />
        </mxCell>
        <mxCell id="J-m82WhB2n0BHHzkugot-9" value="" style="endArrow=open;html=1;endSize=12;startArrow=diamondThin;startSize=14;startFill=0;edgeStyle=orthogonalEdgeStyle;rounded=0;" parent="1" source="TEZOHbHOSB_OMv-VC6Ly-82" target="Cj7RUKxoyTummyb_r4Sp-11" edge="1">
          <mxGeometry relative="1" as="geometry">
            <mxPoint x="1260" y="350" as="sourcePoint" />
            <mxPoint x="1420" y="350" as="targetPoint" />
          </mxGeometry>
        </mxCell>
        <mxCell id="J-m82WhB2n0BHHzkugot-10" value="0..n" style="edgeLabel;resizable=0;html=1;align=left;verticalAlign=top;" parent="J-m82WhB2n0BHHzkugot-9" connectable="0" vertex="1">
          <mxGeometry x="-1" relative="1" as="geometry">
            <mxPoint x="-23" as="offset" />
          </mxGeometry>
        </mxCell>
        <mxCell id="J-m82WhB2n0BHHzkugot-11" value="1" style="edgeLabel;resizable=0;html=1;align=right;verticalAlign=top;" parent="J-m82WhB2n0BHHzkugot-9" connectable="0" vertex="1">
          <mxGeometry x="1" relative="1" as="geometry">
            <mxPoint x="10" as="offset" />
          </mxGeometry>
        </mxCell>
        <mxCell id="J-m82WhB2n0BHHzkugot-24" value="Vault Service" style="text;html=1;align=left;verticalAlign=middle;resizable=0;points=[];autosize=1;strokeColor=none;fillColor=none;rounded=0;shadow=0;glass=0;fontSize=20;fontStyle=1" parent="1" vertex="1">
          <mxGeometry x="1640" y="80" width="150" height="40" as="geometry" />
        </mxCell>
        <mxCell id="J-m82WhB2n0BHHzkugot-25" value="Vault" style="swimlane;fontStyle=1;align=center;verticalAlign=top;childLayout=stackLayout;horizontal=1;startSize=26;horizontalStack=0;resizeParent=1;resizeParentMax=0;resizeLast=0;collapsible=1;marginBottom=0;whiteSpace=wrap;html=1;" parent="1" vertex="1">
          <mxGeometry x="1640" y="160" width="160" height="154" as="geometry" />
        </mxCell>
        <mxCell id="J-m82WhB2n0BHHzkugot-26" value="+ id: VaultId&lt;br&gt;+ displayName: string&lt;br&gt;+ description: string&lt;br&gt;+ accessToken: string&lt;br&gt;+ passwordHash: string&lt;br&gt;+ owningUserId: UserId" style="text;strokeColor=none;fillColor=none;align=left;verticalAlign=top;spacingLeft=4;spacingRight=4;overflow=hidden;rotatable=0;points=[[0,0.5],[1,0.5]];portConstraint=eastwest;whiteSpace=wrap;html=1;" parent="J-m82WhB2n0BHHzkugot-25" vertex="1">
          <mxGeometry y="26" width="160" height="94" as="geometry" />
        </mxCell>
        <mxCell id="J-m82WhB2n0BHHzkugot-27" value="" style="line;strokeWidth=1;fillColor=none;align=left;verticalAlign=middle;spacingTop=-1;spacingLeft=3;spacingRight=3;rotatable=0;labelPosition=right;points=[];portConstraint=eastwest;strokeColor=inherit;" parent="J-m82WhB2n0BHHzkugot-25" vertex="1">
          <mxGeometry y="120" width="160" height="8" as="geometry" />
        </mxCell>
        <mxCell id="J-m82WhB2n0BHHzkugot-28" value="+ open(password)" style="text;strokeColor=none;fillColor=none;align=left;verticalAlign=top;spacingLeft=4;spacingRight=4;overflow=hidden;rotatable=0;points=[[0,0.5],[1,0.5]];portConstraint=eastwest;whiteSpace=wrap;html=1;" parent="J-m82WhB2n0BHHzkugot-25" vertex="1">
          <mxGeometry y="128" width="160" height="26" as="geometry" />
        </mxCell>
        <mxCell id="J-m82WhB2n0BHHzkugot-48" value="Notification Service" style="text;html=1;align=left;verticalAlign=middle;resizable=0;points=[];autosize=1;strokeColor=none;fillColor=none;rounded=0;shadow=0;glass=0;fontSize=20;fontStyle=1" parent="1" vertex="1">
          <mxGeometry x="1200" y="360" width="210" height="40" as="geometry" />
        </mxCell>
        <mxCell id="J-m82WhB2n0BHHzkugot-49" value="Notification" style="swimlane;fontStyle=1;align=center;verticalAlign=top;childLayout=stackLayout;horizontal=1;startSize=26;horizontalStack=0;resizeParent=1;resizeParentMax=0;resizeLast=0;collapsible=1;marginBottom=0;whiteSpace=wrap;html=1;" parent="1" vertex="1">
          <mxGeometry x="1300" y="438" width="160" height="124" as="geometry" />
        </mxCell>
        <mxCell id="J-m82WhB2n0BHHzkugot-50" value="+ id: NotificationId&lt;br&gt;+ content: string" style="text;strokeColor=none;fillColor=none;align=left;verticalAlign=top;spacingLeft=4;spacingRight=4;overflow=hidden;rotatable=0;points=[[0,0.5],[1,0.5]];portConstraint=eastwest;whiteSpace=wrap;html=1;" parent="J-m82WhB2n0BHHzkugot-49" vertex="1">
          <mxGeometry y="26" width="160" height="64" as="geometry" />
        </mxCell>
        <mxCell id="J-m82WhB2n0BHHzkugot-51" value="" style="line;strokeWidth=1;fillColor=none;align=left;verticalAlign=middle;spacingTop=-1;spacingLeft=3;spacingRight=3;rotatable=0;labelPosition=right;points=[];portConstraint=eastwest;strokeColor=inherit;" parent="J-m82WhB2n0BHHzkugot-49" vertex="1">
          <mxGeometry y="90" width="160" height="8" as="geometry" />
        </mxCell>
        <mxCell id="J-m82WhB2n0BHHzkugot-52" value="+ &lt;i&gt;trigger(password)&lt;/i&gt;" style="text;strokeColor=none;fillColor=none;align=left;verticalAlign=top;spacingLeft=4;spacingRight=4;overflow=hidden;rotatable=0;points=[[0,0.5],[1,0.5]];portConstraint=eastwest;whiteSpace=wrap;html=1;" parent="J-m82WhB2n0BHHzkugot-49" vertex="1">
          <mxGeometry y="98" width="160" height="26" as="geometry" />
        </mxCell>
        <mxCell id="J-m82WhB2n0BHHzkugot-53" value="EmailNotification" style="swimlane;fontStyle=1;align=center;verticalAlign=top;childLayout=stackLayout;horizontal=1;startSize=26;horizontalStack=0;resizeParent=1;resizeParentMax=0;resizeLast=0;collapsible=1;marginBottom=0;whiteSpace=wrap;html=1;" parent="1" vertex="1">
          <mxGeometry x="1200" y="640" width="160" height="154" as="geometry" />
        </mxCell>
        <mxCell id="J-m82WhB2n0BHHzkugot-54" value="+ from: string&lt;br&gt;+ to: string&lt;br&gt;+ cc: string&lt;br&gt;+ bcc: string&lt;br&gt;+ subject: string&lt;br&gt;+ body: string" style="text;strokeColor=none;fillColor=none;align=left;verticalAlign=top;spacingLeft=4;spacingRight=4;overflow=hidden;rotatable=0;points=[[0,0.5],[1,0.5]];portConstraint=eastwest;whiteSpace=wrap;html=1;" parent="J-m82WhB2n0BHHzkugot-53" vertex="1">
          <mxGeometry y="26" width="160" height="94" as="geometry" />
        </mxCell>
        <mxCell id="J-m82WhB2n0BHHzkugot-55" value="" style="line;strokeWidth=1;fillColor=none;align=left;verticalAlign=middle;spacingTop=-1;spacingLeft=3;spacingRight=3;rotatable=0;labelPosition=right;points=[];portConstraint=eastwest;strokeColor=inherit;" parent="J-m82WhB2n0BHHzkugot-53" vertex="1">
          <mxGeometry y="120" width="160" height="8" as="geometry" />
        </mxCell>
        <mxCell id="J-m82WhB2n0BHHzkugot-56" value="+ trigger(password)" style="text;strokeColor=none;fillColor=none;align=left;verticalAlign=top;spacingLeft=4;spacingRight=4;overflow=hidden;rotatable=0;points=[[0,0.5],[1,0.5]];portConstraint=eastwest;whiteSpace=wrap;html=1;" parent="J-m82WhB2n0BHHzkugot-53" vertex="1">
          <mxGeometry y="128" width="160" height="26" as="geometry" />
        </mxCell>
        <mxCell id="0NSvSiKZl9066EMI3w9B-1" value="" style="endArrow=block;endSize=16;endFill=0;html=1;rounded=0;edgeStyle=orthogonalEdgeStyle;" parent="1" source="J-m82WhB2n0BHHzkugot-53" target="J-m82WhB2n0BHHzkugot-49" edge="1">
          <mxGeometry width="160" relative="1" as="geometry">
            <mxPoint x="1310" y="610" as="sourcePoint" />
            <mxPoint x="1470" y="610" as="targetPoint" />
          </mxGeometry>
        </mxCell>
        <mxCell id="0NSvSiKZl9066EMI3w9B-2" value="OtherNotification" style="swimlane;fontStyle=1;align=center;verticalAlign=top;childLayout=stackLayout;horizontal=1;startSize=26;horizontalStack=0;resizeParent=1;resizeParentMax=0;resizeLast=0;collapsible=1;marginBottom=0;whiteSpace=wrap;html=1;" parent="1" vertex="1">
          <mxGeometry x="1400" y="640" width="160" height="114" as="geometry" />
        </mxCell>
        <mxCell id="0NSvSiKZl9066EMI3w9B-3" value="Example to illustrate multiple notification types&lt;br&gt;+ &lt;font color=&quot;#ff0050&quot;&gt;... (check API)&lt;/font&gt;" style="text;strokeColor=none;fillColor=none;align=left;verticalAlign=top;spacingLeft=4;spacingRight=4;overflow=hidden;rotatable=0;points=[[0,0.5],[1,0.5]];portConstraint=eastwest;whiteSpace=wrap;html=1;" parent="0NSvSiKZl9066EMI3w9B-2" vertex="1">
          <mxGeometry y="26" width="160" height="54" as="geometry" />
        </mxCell>
        <mxCell id="0NSvSiKZl9066EMI3w9B-4" value="" style="line;strokeWidth=1;fillColor=none;align=left;verticalAlign=middle;spacingTop=-1;spacingLeft=3;spacingRight=3;rotatable=0;labelPosition=right;points=[];portConstraint=eastwest;strokeColor=inherit;" parent="0NSvSiKZl9066EMI3w9B-2" vertex="1">
          <mxGeometry y="80" width="160" height="8" as="geometry" />
        </mxCell>
        <mxCell id="0NSvSiKZl9066EMI3w9B-5" value="+ trigger(password)" style="text;strokeColor=none;fillColor=none;align=left;verticalAlign=top;spacingLeft=4;spacingRight=4;overflow=hidden;rotatable=0;points=[[0,0.5],[1,0.5]];portConstraint=eastwest;whiteSpace=wrap;html=1;" parent="0NSvSiKZl9066EMI3w9B-2" vertex="1">
          <mxGeometry y="88" width="160" height="26" as="geometry" />
        </mxCell>
        <mxCell id="0NSvSiKZl9066EMI3w9B-6" value="" style="endArrow=block;endSize=16;endFill=0;html=1;rounded=0;edgeStyle=orthogonalEdgeStyle;" parent="1" source="0NSvSiKZl9066EMI3w9B-2" target="J-m82WhB2n0BHHzkugot-49" edge="1">
          <mxGeometry width="160" relative="1" as="geometry">
            <mxPoint x="1270" y="650" as="sourcePoint" />
            <mxPoint x="1390" y="572" as="targetPoint" />
          </mxGeometry>
        </mxCell>
        <mxCell id="vQ2-8YrHYZbSzlKzXcPj-1" value="Deadman Switch Failed" style="text;html=1;align=center;verticalAlign=middle;resizable=0;points=[];autosize=1;strokeColor=none;fillColor=none;rounded=0;shadow=0;glass=0;fontSize=24;fontStyle=1" vertex="1" parent="1">
          <mxGeometry x="1595" y="810" width="290" height="40" as="geometry" />
        </mxCell>
        <mxCell id="vQ2-8YrHYZbSzlKzXcPj-2" value="&lt;span style=&quot;font-weight: normal;&quot;&gt;&lt;font style=&quot;font-size: 16px;&quot;&gt;Communication Diagram&lt;br&gt;&lt;/font&gt;&lt;/span&gt;" style="text;html=1;align=center;verticalAlign=middle;resizable=0;points=[];autosize=1;strokeColor=none;fillColor=none;rounded=0;shadow=0;glass=0;fontSize=24;fontStyle=1" vertex="1" parent="1">
          <mxGeometry x="1640" y="836" width="200" height="40" as="geometry" />
        </mxCell>
        <mxCell id="vQ2-8YrHYZbSzlKzXcPj-38" style="edgeStyle=orthogonalEdgeStyle;shape=connector;rounded=0;orthogonalLoop=1;jettySize=auto;html=1;dashed=1;labelBackgroundColor=default;strokeColor=default;align=center;verticalAlign=middle;fontFamily=Helvetica;fontSize=11;fontColor=default;endArrow=classic;curved=1;" edge="1" parent="1" source="vQ2-8YrHYZbSzlKzXcPj-3" target="vQ2-8YrHYZbSzlKzXcPj-4">
          <mxGeometry relative="1" as="geometry" />
        </mxCell>
        <mxCell id="vQ2-8YrHYZbSzlKzXcPj-39" style="edgeStyle=orthogonalEdgeStyle;shape=connector;rounded=0;orthogonalLoop=1;jettySize=auto;html=1;dashed=1;labelBackgroundColor=default;strokeColor=default;align=center;verticalAlign=middle;fontFamily=Helvetica;fontSize=11;fontColor=default;endArrow=classic;curved=1;" edge="1" parent="1" source="vQ2-8YrHYZbSzlKzXcPj-3" target="vQ2-8YrHYZbSzlKzXcPj-36">
          <mxGeometry relative="1" as="geometry">
            <Array as="points">
              <mxPoint x="1380" y="1085" />
              <mxPoint x="1300" y="1085" />
            </Array>
          </mxGeometry>
        </mxCell>
        <mxCell id="vQ2-8YrHYZbSzlKzXcPj-40" style="edgeStyle=orthogonalEdgeStyle;shape=connector;rounded=0;orthogonalLoop=1;jettySize=auto;html=1;dashed=1;labelBackgroundColor=default;strokeColor=default;align=center;verticalAlign=middle;fontFamily=Helvetica;fontSize=11;fontColor=default;endArrow=classic;curved=1;" edge="1" parent="1" source="vQ2-8YrHYZbSzlKzXcPj-3" target="vQ2-8YrHYZbSzlKzXcPj-5">
          <mxGeometry relative="1" as="geometry">
            <Array as="points">
              <mxPoint x="1380" y="1160" />
              <mxPoint x="1480" y="1160" />
            </Array>
          </mxGeometry>
        </mxCell>
        <mxCell id="vQ2-8YrHYZbSzlKzXcPj-43" style="edgeStyle=orthogonalEdgeStyle;shape=connector;rounded=0;orthogonalLoop=1;jettySize=auto;html=1;dashed=1;labelBackgroundColor=default;strokeColor=default;align=center;verticalAlign=middle;fontFamily=Helvetica;fontSize=11;fontColor=default;endArrow=classic;curved=1;" edge="1" parent="1" source="vQ2-8YrHYZbSzlKzXcPj-3" target="vQ2-8YrHYZbSzlKzXcPj-41">
          <mxGeometry relative="1" as="geometry" />
        </mxCell>
        <mxCell id="vQ2-8YrHYZbSzlKzXcPj-3" value="Web Service" style="rounded=1;whiteSpace=wrap;html=1;fillColor=#fff2cc;strokeColor=#d6b656;" vertex="1" parent="1">
          <mxGeometry x="1320" y="960" width="120" height="40" as="geometry" />
        </mxCell>
        <mxCell id="vQ2-8YrHYZbSzlKzXcPj-49" style="edgeStyle=orthogonalEdgeStyle;shape=connector;rounded=0;orthogonalLoop=1;jettySize=auto;html=1;exitX=0.25;exitY=1;exitDx=0;exitDy=0;dashed=1;labelBackgroundColor=default;strokeColor=default;align=center;verticalAlign=middle;fontFamily=Helvetica;fontSize=11;fontColor=default;endArrow=classic;curved=1;" edge="1" parent="1" source="vQ2-8YrHYZbSzlKzXcPj-4" target="vQ2-8YrHYZbSzlKzXcPj-41">
          <mxGeometry relative="1" as="geometry">
            <Array as="points">
              <mxPoint x="1590" y="1050" />
              <mxPoint x="1550" y="1050" />
            </Array>
          </mxGeometry>
        </mxCell>
        <mxCell id="vQ2-8YrHYZbSzlKzXcPj-4" value="Vault Service" style="rounded=1;whiteSpace=wrap;html=1;fillColor=#fff2cc;strokeColor=#d6b656;" vertex="1" parent="1">
          <mxGeometry x="1560" y="960" width="120" height="40" as="geometry" />
        </mxCell>
        <mxCell id="vQ2-8YrHYZbSzlKzXcPj-51" style="edgeStyle=orthogonalEdgeStyle;shape=connector;rounded=0;orthogonalLoop=1;jettySize=auto;html=1;exitX=0.75;exitY=0;exitDx=0;exitDy=0;dashed=1;labelBackgroundColor=default;strokeColor=#82b366;align=center;verticalAlign=middle;fontFamily=Helvetica;fontSize=11;fontColor=default;endArrow=classic;fillColor=#d5e8d4;curved=1;" edge="1" parent="1" source="vQ2-8YrHYZbSzlKzXcPj-5" target="vQ2-8YrHYZbSzlKzXcPj-8">
          <mxGeometry relative="1" as="geometry">
            <Array as="points">
              <mxPoint x="1540" y="1210" />
              <mxPoint x="1750" y="1210" />
            </Array>
          </mxGeometry>
        </mxCell>
        <mxCell id="vQ2-8YrHYZbSzlKzXcPj-53" style="edgeStyle=orthogonalEdgeStyle;shape=connector;rounded=0;orthogonalLoop=1;jettySize=auto;html=1;dashed=1;labelBackgroundColor=default;strokeColor=default;align=center;verticalAlign=middle;fontFamily=Helvetica;fontSize=11;fontColor=default;endArrow=classic;curved=1;exitX=0.599;exitY=-0.021;exitDx=0;exitDy=0;exitPerimeter=0;" edge="1" parent="1" source="vQ2-8YrHYZbSzlKzXcPj-5" target="vQ2-8YrHYZbSzlKzXcPj-41">
          <mxGeometry relative="1" as="geometry" />
        </mxCell>
        <mxCell id="vQ2-8YrHYZbSzlKzXcPj-5" value="Notification Service" style="rounded=1;whiteSpace=wrap;html=1;fillColor=#fff2cc;strokeColor=#d6b656;" vertex="1" parent="1">
          <mxGeometry x="1450" y="1310" width="120" height="40" as="geometry" />
        </mxCell>
        <mxCell id="vQ2-8YrHYZbSzlKzXcPj-44" style="edgeStyle=orthogonalEdgeStyle;shape=connector;rounded=0;orthogonalLoop=1;jettySize=auto;html=1;dashed=1;labelBackgroundColor=default;strokeColor=#82b366;align=center;verticalAlign=middle;fontFamily=Helvetica;fontSize=11;fontColor=default;endArrow=classic;fillColor=#d5e8d4;entryX=0.75;entryY=1;entryDx=0;entryDy=0;curved=1;" edge="1" parent="1" source="vQ2-8YrHYZbSzlKzXcPj-8" target="vQ2-8YrHYZbSzlKzXcPj-4">
          <mxGeometry relative="1" as="geometry" />
        </mxCell>
        <mxCell id="vQ2-8YrHYZbSzlKzXcPj-46" style="edgeStyle=orthogonalEdgeStyle;shape=connector;rounded=0;orthogonalLoop=1;jettySize=auto;html=1;dashed=1;labelBackgroundColor=default;strokeColor=#82b366;align=center;verticalAlign=middle;fontFamily=Helvetica;fontSize=11;fontColor=default;endArrow=classic;fillColor=#d5e8d4;curved=1;" edge="1" parent="1" source="vQ2-8YrHYZbSzlKzXcPj-8" target="vQ2-8YrHYZbSzlKzXcPj-36">
          <mxGeometry relative="1" as="geometry">
            <Array as="points">
              <mxPoint x="1750" y="1070" />
              <mxPoint x="1320" y="1070" />
            </Array>
          </mxGeometry>
        </mxCell>
        <mxCell id="vQ2-8YrHYZbSzlKzXcPj-50" style="edgeStyle=orthogonalEdgeStyle;shape=connector;rounded=0;orthogonalLoop=1;jettySize=auto;html=1;exitX=0.608;exitY=1.007;exitDx=0;exitDy=0;dashed=1;labelBackgroundColor=default;strokeColor=#82b366;align=center;verticalAlign=middle;fontFamily=Helvetica;fontSize=11;fontColor=default;endArrow=classic;fillColor=#d5e8d4;curved=1;entryX=0.88;entryY=-0.007;entryDx=0;entryDy=0;entryPerimeter=0;exitPerimeter=0;" edge="1" parent="1" source="vQ2-8YrHYZbSzlKzXcPj-8" target="vQ2-8YrHYZbSzlKzXcPj-5">
          <mxGeometry relative="1" as="geometry" />
        </mxCell>
        <mxCell id="vQ2-8YrHYZbSzlKzXcPj-8" value="Service Bus" style="rounded=1;whiteSpace=wrap;html=1;fillColor=#dae8fc;strokeColor=#6c8ebf;" vertex="1" parent="1">
          <mxGeometry x="1690" y="1100" width="120" height="40" as="geometry" />
        </mxCell>
        <mxCell id="vQ2-8YrHYZbSzlKzXcPj-52" style="edgeStyle=orthogonalEdgeStyle;shape=connector;rounded=0;orthogonalLoop=1;jettySize=auto;html=1;exitX=0.75;exitY=0;exitDx=0;exitDy=0;dashed=1;labelBackgroundColor=default;strokeColor=default;align=center;verticalAlign=middle;fontFamily=Helvetica;fontSize=11;fontColor=default;endArrow=classic;curved=1;entryX=0;entryY=0.5;entryDx=0;entryDy=0;" edge="1" parent="1" source="vQ2-8YrHYZbSzlKzXcPj-36" target="vQ2-8YrHYZbSzlKzXcPj-41">
          <mxGeometry relative="1" as="geometry">
            <Array as="points">
              <mxPoint x="1350" y="1120" />
            </Array>
          </mxGeometry>
        </mxCell>
        <mxCell id="vQ2-8YrHYZbSzlKzXcPj-36" value="Message Service" style="rounded=1;whiteSpace=wrap;html=1;fillColor=#fff2cc;strokeColor=#d6b656;" vertex="1" parent="1">
          <mxGeometry x="1260" y="1170" width="120" height="40" as="geometry" />
        </mxCell>
        <mxCell id="vQ2-8YrHYZbSzlKzXcPj-116" style="edgeStyle=orthogonalEdgeStyle;shape=connector;rounded=0;orthogonalLoop=1;jettySize=auto;html=1;dashed=1;labelBackgroundColor=default;strokeColor=#82b366;align=center;verticalAlign=middle;fontFamily=Helvetica;fontSize=11;fontColor=default;endArrow=classic;fillColor=#d5e8d4;curved=1;" edge="1" parent="1" source="vQ2-8YrHYZbSzlKzXcPj-41" target="vQ2-8YrHYZbSzlKzXcPj-8">
          <mxGeometry relative="1" as="geometry">
            <Array as="points">
              <mxPoint x="1540" y="1180" />
              <mxPoint x="1710" y="1180" />
            </Array>
          </mxGeometry>
        </mxCell>
        <mxCell id="vQ2-8YrHYZbSzlKzXcPj-41" value="Authentication Service" style="rounded=1;whiteSpace=wrap;html=1;fillColor=#fff2cc;strokeColor=#d6b656;" vertex="1" parent="1">
          <mxGeometry x="1460" y="1100" width="120" height="40" as="geometry" />
        </mxCell>
        <mxCell id="vQ2-8YrHYZbSzlKzXcPj-54" value="Message Service" style="text;html=1;align=left;verticalAlign=middle;resizable=0;points=[];autosize=1;strokeColor=none;fillColor=none;rounded=0;shadow=0;glass=0;fontSize=20;fontStyle=1" vertex="1" parent="1">
          <mxGeometry x="1640" y="360" width="180" height="40" as="geometry" />
        </mxCell>
        <mxCell id="vQ2-8YrHYZbSzlKzXcPj-55" value="Message" style="swimlane;fontStyle=1;align=center;verticalAlign=top;childLayout=stackLayout;horizontal=1;startSize=26;horizontalStack=0;resizeParent=1;resizeParentMax=0;resizeLast=0;collapsible=1;marginBottom=0;whiteSpace=wrap;html=1;" vertex="1" parent="1">
          <mxGeometry x="1640" y="440" width="160" height="124" as="geometry" />
        </mxCell>
        <mxCell id="vQ2-8YrHYZbSzlKzXcPj-56" value="+ id: MessageId&lt;br&gt;+ addressee: string&lt;br&gt;+ title: string&lt;br&gt;+ content: string&lt;br&gt;" style="text;strokeColor=none;fillColor=none;align=left;verticalAlign=top;spacingLeft=4;spacingRight=4;overflow=hidden;rotatable=0;points=[[0,0.5],[1,0.5]];portConstraint=eastwest;whiteSpace=wrap;html=1;" vertex="1" parent="vQ2-8YrHYZbSzlKzXcPj-55">
          <mxGeometry y="26" width="160" height="64" as="geometry" />
        </mxCell>
        <mxCell id="vQ2-8YrHYZbSzlKzXcPj-57" value="" style="line;strokeWidth=1;fillColor=none;align=left;verticalAlign=middle;spacingTop=-1;spacingLeft=3;spacingRight=3;rotatable=0;labelPosition=right;points=[];portConstraint=eastwest;strokeColor=inherit;" vertex="1" parent="vQ2-8YrHYZbSzlKzXcPj-55">
          <mxGeometry y="90" width="160" height="8" as="geometry" />
        </mxCell>
        <mxCell id="vQ2-8YrHYZbSzlKzXcPj-58" value="+ decrypt(password)" style="text;strokeColor=none;fillColor=none;align=left;verticalAlign=top;spacingLeft=4;spacingRight=4;overflow=hidden;rotatable=0;points=[[0,0.5],[1,0.5]];portConstraint=eastwest;whiteSpace=wrap;html=1;" vertex="1" parent="vQ2-8YrHYZbSzlKzXcPj-55">
          <mxGeometry y="98" width="160" height="26" as="geometry" />
        </mxCell>
        <mxCell id="vQ2-8YrHYZbSzlKzXcPj-69" value="Message Service" style="rounded=1;whiteSpace=wrap;html=1;fillColor=#fff2cc;strokeColor=#d6b656;" vertex="1" parent="1">
          <mxGeometry x="520" y="360" width="120" height="40" as="geometry" />
        </mxCell>
        <mxCell id="vQ2-8YrHYZbSzlKzXcPj-70" value="Notification DB" style="shape=cylinder3;whiteSpace=wrap;html=1;boundedLbl=1;backgroundOutline=1;size=15;" vertex="1" parent="1">
          <mxGeometry x="550" y="200" width="60" height="80" as="geometry" />
        </mxCell>
        <mxCell id="vQ2-8YrHYZbSzlKzXcPj-71" value="" style="endArrow=classic;startArrow=classic;html=1;rounded=0;labelBorderColor=#FFFFFF;" edge="1" source="vQ2-8YrHYZbSzlKzXcPj-69" target="vQ2-8YrHYZbSzlKzXcPj-70" parent="1">
          <mxGeometry width="50" height="50" relative="1" as="geometry">
            <mxPoint x="280" y="380" as="sourcePoint" />
            <mxPoint x="280" y="300" as="targetPoint" />
          </mxGeometry>
        </mxCell>
        <mxCell id="vQ2-8YrHYZbSzlKzXcPj-72" value="" style="endArrow=classic;html=1;rounded=0;entryX=0.25;entryY=1;entryDx=0;entryDy=0;exitX=0.072;exitY=0;exitDx=0;exitDy=0;exitPerimeter=0;" edge="1" parent="1">
          <mxGeometry width="50" height="50" relative="1" as="geometry">
            <mxPoint x="549.4300000000001" y="480" as="sourcePoint" />
            <mxPoint x="549.4300000000001" y="400" as="targetPoint" />
          </mxGeometry>
        </mxCell>
        <mxCell id="vQ2-8YrHYZbSzlKzXcPj-73" value="" style="endArrow=classic;html=1;rounded=0;exitX=0.75;exitY=1;exitDx=0;exitDy=0;" edge="1" parent="1">
          <mxGeometry width="50" height="50" relative="1" as="geometry">
            <mxPoint x="609.4300000000001" y="400" as="sourcePoint" />
            <mxPoint x="609.4300000000001" y="480" as="targetPoint" />
          </mxGeometry>
        </mxCell>
        <mxCell id="vQ2-8YrHYZbSzlKzXcPj-74" value="Notification Service" style="rounded=1;whiteSpace=wrap;html=1;fillColor=#fff2cc;strokeColor=#d6b656;" vertex="1" parent="1">
          <mxGeometry x="520" y="880" width="120" height="40" as="geometry" />
        </mxCell>
        <mxCell id="vQ2-8YrHYZbSzlKzXcPj-75" style="edgeStyle=orthogonalEdgeStyle;rounded=0;orthogonalLoop=1;jettySize=auto;html=1;entryX=0.25;entryY=1;entryDx=0;entryDy=0;" edge="1" target="vQ2-8YrHYZbSzlKzXcPj-74" parent="1">
          <mxGeometry relative="1" as="geometry">
            <Array as="points">
              <mxPoint x="550" y="1380" />
              <mxPoint x="550" y="1380" />
            </Array>
            <mxPoint x="550" y="1520" as="sourcePoint" />
          </mxGeometry>
        </mxCell>
        <mxCell id="vQ2-8YrHYZbSzlKzXcPj-76" style="edgeStyle=orthogonalEdgeStyle;rounded=0;orthogonalLoop=1;jettySize=auto;html=1;exitX=0.75;exitY=1;exitDx=0;exitDy=0;entryX=0.386;entryY=-0.05;entryDx=0;entryDy=0;entryPerimeter=0;" edge="1" source="vQ2-8YrHYZbSzlKzXcPj-74" parent="1">
          <mxGeometry relative="1" as="geometry">
            <mxPoint x="610" y="1518" as="targetPoint" />
          </mxGeometry>
        </mxCell>
        <mxCell id="vQ2-8YrHYZbSzlKzXcPj-77" value="Events" style="swimlane;fontStyle=0;childLayout=stackLayout;horizontal=1;startSize=30;horizontalStack=0;resizeParent=1;resizeParentMax=0;resizeLast=0;collapsible=1;marginBottom=0;whiteSpace=wrap;html=1;fillColor=#FFFFFF;" vertex="1" parent="1">
          <mxGeometry x="510" y="960" width="80" height="120" as="geometry" />
        </mxCell>
        <mxCell id="vQ2-8YrHYZbSzlKzXcPj-78" value="SendNotif" style="text;strokeColor=#666666;fillColor=#f5f5f5;align=left;verticalAlign=middle;spacingLeft=4;spacingRight=4;overflow=hidden;points=[[0,0.5],[1,0.5]];portConstraint=eastwest;rotatable=0;whiteSpace=wrap;html=1;fontColor=#333333;fontSize=10;" vertex="1" parent="vQ2-8YrHYZbSzlKzXcPj-77">
          <mxGeometry y="30" width="80" height="30" as="geometry" />
        </mxCell>
        <mxCell id="vQ2-8YrHYZbSzlKzXcPj-79" value="NotifCreated" style="text;strokeColor=#666666;fillColor=#f5f5f5;align=left;verticalAlign=middle;spacingLeft=4;spacingRight=4;overflow=hidden;points=[[0,0.5],[1,0.5]];portConstraint=eastwest;rotatable=0;whiteSpace=wrap;html=1;fontColor=#333333;fontSize=10;" vertex="1" parent="vQ2-8YrHYZbSzlKzXcPj-77">
          <mxGeometry y="60" width="80" height="30" as="geometry" />
        </mxCell>
        <mxCell id="vQ2-8YrHYZbSzlKzXcPj-80" value="GetNotif" style="text;strokeColor=#666666;fillColor=#f5f5f5;align=left;verticalAlign=middle;spacingLeft=4;spacingRight=4;overflow=hidden;points=[[0,0.5],[1,0.5]];portConstraint=eastwest;rotatable=0;whiteSpace=wrap;html=1;fontColor=#333333;fontSize=10;" vertex="1" parent="vQ2-8YrHYZbSzlKzXcPj-77">
          <mxGeometry y="90" width="80" height="30" as="geometry" />
        </mxCell>
        <mxCell id="vQ2-8YrHYZbSzlKzXcPj-81" value="Events" style="swimlane;fontStyle=0;childLayout=stackLayout;horizontal=1;startSize=30;horizontalStack=0;resizeParent=1;resizeParentMax=0;resizeLast=0;collapsible=1;marginBottom=0;whiteSpace=wrap;html=1;fillColor=#FFFFFF;" vertex="1" parent="1">
          <mxGeometry x="570" y="1240" width="80" height="60" as="geometry" />
        </mxCell>
        <mxCell id="vQ2-8YrHYZbSzlKzXcPj-82" value="NotifSent" style="text;strokeColor=#666666;fillColor=#f5f5f5;align=left;verticalAlign=middle;spacingLeft=4;spacingRight=4;overflow=hidden;points=[[0,0.5],[1,0.5]];portConstraint=eastwest;rotatable=0;whiteSpace=wrap;html=1;fontColor=#333333;fontSize=10;" vertex="1" parent="vQ2-8YrHYZbSzlKzXcPj-81">
          <mxGeometry y="30" width="80" height="30" as="geometry" />
        </mxCell>
        <mxCell id="vQ2-8YrHYZbSzlKzXcPj-86" value="Untitled Layer" parent="0" />
        <mxCell id="vQ2-8YrHYZbSzlKzXcPj-87" value="" style="rounded=0;whiteSpace=wrap;html=1;fontFamily=Helvetica;fontSize=11;fillColor=#f8cecc;glass=0;strokeColor=#b85450;opacity=40;shadow=0;sketch=1;curveFitting=1;jiggle=2;" vertex="1" parent="vQ2-8YrHYZbSzlKzXcPj-86">
          <mxGeometry x="10" y="810" width="1140" height="780" as="geometry" />
        </mxCell>
        <mxCell id="vQ2-8YrHYZbSzlKzXcPj-88" value="" style="endArrow=none;html=1;rounded=0;labelBackgroundColor=default;strokeColor=default;align=center;verticalAlign=middle;fontFamily=Helvetica;fontSize=11;fontColor=default;shape=connector;entryX=0;entryY=0;entryDx=0;entryDy=0;exitX=1;exitY=1;exitDx=0;exitDy=0;" edge="1" parent="vQ2-8YrHYZbSzlKzXcPj-86" source="vQ2-8YrHYZbSzlKzXcPj-87" target="vQ2-8YrHYZbSzlKzXcPj-87">
          <mxGeometry width="50" height="50" relative="1" as="geometry">
            <mxPoint x="730" y="1190" as="sourcePoint" />
            <mxPoint x="780" y="1140" as="targetPoint" />
          </mxGeometry>
        </mxCell>
        <mxCell id="vQ2-8YrHYZbSzlKzXcPj-90" value="Communications" style="swimlane;fontStyle=0;childLayout=stackLayout;horizontal=1;startSize=30;horizontalStack=0;resizeParent=1;resizeParentMax=0;resizeLast=0;collapsible=1;marginBottom=0;whiteSpace=wrap;html=1;fontFamily=Helvetica;fontSize=11;fontColor=default;" vertex="1" parent="vQ2-8YrHYZbSzlKzXcPj-86">
          <mxGeometry x="2000" y="880" width="280" height="510" as="geometry" />
        </mxCell>
        <mxCell id="vQ2-8YrHYZbSzlKzXcPj-91" value="WS-AS - Get Auth Token - Synchronous" style="text;strokeColor=#82b366;fillColor=#d5e8d4;align=left;verticalAlign=middle;spacingLeft=4;spacingRight=4;overflow=hidden;points=[[0,0.5],[1,0.5]];portConstraint=eastwest;rotatable=0;whiteSpace=wrap;html=1;fontSize=11;fontFamily=Helvetica;" vertex="1" parent="vQ2-8YrHYZbSzlKzXcPj-90">
          <mxGeometry y="30" width="280" height="30" as="geometry" />
        </mxCell>
        <mxCell id="vQ2-8YrHYZbSzlKzXcPj-101" value="WS-AS - New User - Synchronous" style="text;strokeColor=#82b366;fillColor=#d5e8d4;align=left;verticalAlign=middle;spacingLeft=4;spacingRight=4;overflow=hidden;points=[[0,0.5],[1,0.5]];portConstraint=eastwest;rotatable=0;whiteSpace=wrap;html=1;fontSize=11;fontFamily=Helvetica;" vertex="1" parent="vQ2-8YrHYZbSzlKzXcPj-90">
          <mxGeometry y="60" width="280" height="30" as="geometry" />
        </mxCell>
        <mxCell id="vQ2-8YrHYZbSzlKzXcPj-102" value="WS-AS - Change User - Synchronous" style="text;strokeColor=#82b366;fillColor=#d5e8d4;align=left;verticalAlign=middle;spacingLeft=4;spacingRight=4;overflow=hidden;points=[[0,0.5],[1,0.5]];portConstraint=eastwest;rotatable=0;whiteSpace=wrap;html=1;fontSize=11;fontFamily=Helvetica;" vertex="1" parent="vQ2-8YrHYZbSzlKzXcPj-90">
          <mxGeometry y="90" width="280" height="30" as="geometry" />
        </mxCell>
        <mxCell id="vQ2-8YrHYZbSzlKzXcPj-103" value="WS-AS - Delete User - Synchronous" style="text;strokeColor=#82b366;fillColor=#d5e8d4;align=left;verticalAlign=middle;spacingLeft=4;spacingRight=4;overflow=hidden;points=[[0,0.5],[1,0.5]];portConstraint=eastwest;rotatable=0;whiteSpace=wrap;html=1;fontSize=11;fontFamily=Helvetica;" vertex="1" parent="vQ2-8YrHYZbSzlKzXcPj-90">
          <mxGeometry y="120" width="280" height="30" as="geometry" />
        </mxCell>
        <mxCell id="vQ2-8YrHYZbSzlKzXcPj-94" value="VS-AS - Auth Token Allowed - Synchronous" style="text;strokeColor=#6c8ebf;fillColor=#dae8fc;align=left;verticalAlign=middle;spacingLeft=4;spacingRight=4;overflow=hidden;points=[[0,0.5],[1,0.5]];portConstraint=eastwest;rotatable=0;whiteSpace=wrap;html=1;fontSize=11;fontFamily=Helvetica;" vertex="1" parent="vQ2-8YrHYZbSzlKzXcPj-90">
          <mxGeometry y="150" width="280" height="30" as="geometry" />
        </mxCell>
        <mxCell id="vQ2-8YrHYZbSzlKzXcPj-96" value="MS-AS - Auth Token Allowed - Synchronous" style="text;strokeColor=#6c8ebf;fillColor=#dae8fc;align=left;verticalAlign=middle;spacingLeft=4;spacingRight=4;overflow=hidden;points=[[0,0.5],[1,0.5]];portConstraint=eastwest;rotatable=0;whiteSpace=wrap;html=1;fontSize=11;fontFamily=Helvetica;" vertex="1" parent="vQ2-8YrHYZbSzlKzXcPj-90">
          <mxGeometry y="180" width="280" height="30" as="geometry" />
        </mxCell>
        <mxCell id="vQ2-8YrHYZbSzlKzXcPj-97" value="NS-AS - Auth Token Allowed - Synchronous" style="text;strokeColor=#6c8ebf;fillColor=#dae8fc;align=left;verticalAlign=middle;spacingLeft=4;spacingRight=4;overflow=hidden;points=[[0,0.5],[1,0.5]];portConstraint=eastwest;rotatable=0;whiteSpace=wrap;html=1;fontSize=11;fontFamily=Helvetica;" vertex="1" parent="vQ2-8YrHYZbSzlKzXcPj-90">
          <mxGeometry y="210" width="280" height="30" as="geometry" />
        </mxCell>
        <mxCell id="vQ2-8YrHYZbSzlKzXcPj-98" value="WS-VS - Add Vault - Synchronous" style="text;strokeColor=#82b366;fillColor=#d5e8d4;align=left;verticalAlign=middle;spacingLeft=4;spacingRight=4;overflow=hidden;points=[[0,0.5],[1,0.5]];portConstraint=eastwest;rotatable=0;whiteSpace=wrap;html=1;fontSize=11;fontFamily=Helvetica;" vertex="1" parent="vQ2-8YrHYZbSzlKzXcPj-90">
          <mxGeometry y="240" width="280" height="30" as="geometry" />
        </mxCell>
        <mxCell id="vQ2-8YrHYZbSzlKzXcPj-99" value="WS-MS - Add Message - Synchronous" style="text;strokeColor=#82b366;fillColor=#d5e8d4;align=left;verticalAlign=middle;spacingLeft=4;spacingRight=4;overflow=hidden;points=[[0,0.5],[1,0.5]];portConstraint=eastwest;rotatable=0;whiteSpace=wrap;html=1;fontSize=11;fontFamily=Helvetica;" vertex="1" parent="vQ2-8YrHYZbSzlKzXcPj-90">
          <mxGeometry y="270" width="280" height="30" as="geometry" />
        </mxCell>
        <mxCell id="vQ2-8YrHYZbSzlKzXcPj-100" value="WS-NS - Add Notification - Synchronous" style="text;strokeColor=#82b366;fillColor=#d5e8d4;align=left;verticalAlign=middle;spacingLeft=4;spacingRight=4;overflow=hidden;points=[[0,0.5],[1,0.5]];portConstraint=eastwest;rotatable=0;whiteSpace=wrap;html=1;fontSize=11;fontFamily=Helvetica;" vertex="1" parent="vQ2-8YrHYZbSzlKzXcPj-90">
          <mxGeometry y="300" width="280" height="30" as="geometry" />
        </mxCell>
        <mxCell id="vQ2-8YrHYZbSzlKzXcPj-106" value="WS-VS - Remove Vault - Synchronous" style="text;strokeColor=#82b366;fillColor=#d5e8d4;align=left;verticalAlign=middle;spacingLeft=4;spacingRight=4;overflow=hidden;points=[[0,0.5],[1,0.5]];portConstraint=eastwest;rotatable=0;whiteSpace=wrap;html=1;fontSize=11;fontFamily=Helvetica;" vertex="1" parent="vQ2-8YrHYZbSzlKzXcPj-90">
          <mxGeometry y="330" width="280" height="30" as="geometry" />
        </mxCell>
        <mxCell id="vQ2-8YrHYZbSzlKzXcPj-107" value="WS-MS - Remove Message - Synchronous" style="text;strokeColor=#82b366;fillColor=#d5e8d4;align=left;verticalAlign=middle;spacingLeft=4;spacingRight=4;overflow=hidden;points=[[0,0.5],[1,0.5]];portConstraint=eastwest;rotatable=0;whiteSpace=wrap;html=1;fontSize=11;fontFamily=Helvetica;" vertex="1" parent="vQ2-8YrHYZbSzlKzXcPj-90">
          <mxGeometry y="360" width="280" height="30" as="geometry" />
        </mxCell>
        <mxCell id="vQ2-8YrHYZbSzlKzXcPj-108" value="WS-NS - Remove Notification - Synchronous" style="text;strokeColor=#82b366;fillColor=#d5e8d4;align=left;verticalAlign=middle;spacingLeft=4;spacingRight=4;overflow=hidden;points=[[0,0.5],[1,0.5]];portConstraint=eastwest;rotatable=0;whiteSpace=wrap;html=1;fontSize=11;fontFamily=Helvetica;" vertex="1" parent="vQ2-8YrHYZbSzlKzXcPj-90">
          <mxGeometry y="390" width="280" height="30" as="geometry" />
        </mxCell>
        <mxCell id="vQ2-8YrHYZbSzlKzXcPj-112" value="AS-VS - Remove Vaults of User - Asynchronous" style="text;strokeColor=#d79b00;fillColor=#ffe6cc;align=left;verticalAlign=middle;spacingLeft=4;spacingRight=4;overflow=hidden;points=[[0,0.5],[1,0.5]];portConstraint=eastwest;rotatable=0;whiteSpace=wrap;html=1;fontSize=11;fontFamily=Helvetica;" vertex="1" parent="vQ2-8YrHYZbSzlKzXcPj-90">
          <mxGeometry y="420" width="280" height="30" as="geometry" />
        </mxCell>
        <mxCell id="vQ2-8YrHYZbSzlKzXcPj-109" value="VS-NS - Remove Vaults Notifications - Asynchronous" style="text;strokeColor=#d79b00;fillColor=#ffe6cc;align=left;verticalAlign=middle;spacingLeft=4;spacingRight=4;overflow=hidden;points=[[0,0.5],[1,0.5]];portConstraint=eastwest;rotatable=0;whiteSpace=wrap;html=1;fontSize=11;fontFamily=Helvetica;" vertex="1" parent="vQ2-8YrHYZbSzlKzXcPj-90">
          <mxGeometry y="450" width="280" height="30" as="geometry" />
        </mxCell>
        <mxCell id="vQ2-8YrHYZbSzlKzXcPj-111" value="VS-MS - Remove Vaults Messages - Asynchronous" style="text;strokeColor=#d79b00;fillColor=#ffe6cc;align=left;verticalAlign=middle;spacingLeft=4;spacingRight=4;overflow=hidden;points=[[0,0.5],[1,0.5]];portConstraint=eastwest;rotatable=0;whiteSpace=wrap;html=1;fontSize=11;fontFamily=Helvetica;" vertex="1" parent="vQ2-8YrHYZbSzlKzXcPj-90">
          <mxGeometry y="480" width="280" height="30" as="geometry" />
        </mxCell>
        <mxCell id="vQ2-8YrHYZbSzlKzXcPj-113" value="" style="strokeWidth=2;html=1;shape=mxgraph.flowchart.annotation_2;align=left;labelPosition=right;pointerEvents=1;fontFamily=Helvetica;fontSize=11;fontColor=default;" vertex="1" parent="vQ2-8YrHYZbSzlKzXcPj-86">
          <mxGeometry x="1950" y="1330" width="50" height="60" as="geometry" />
        </mxCell>
        <mxCell id="vQ2-8YrHYZbSzlKzXcPj-114" value="Same message on SB" style="text;html=1;align=center;verticalAlign=middle;resizable=0;points=[];autosize=1;strokeColor=none;fillColor=none;fontSize=11;fontFamily=Helvetica;fontColor=default;" vertex="1" parent="vQ2-8YrHYZbSzlKzXcPj-86">
          <mxGeometry x="1820" y="1345" width="130" height="30" as="geometry" />
        </mxCell>
        <mxCell id="vQ2-8YrHYZbSzlKzXcPj-118" value="Web Call" style="text;strokeColor=#82b366;fillColor=#d5e8d4;align=left;verticalAlign=middle;spacingLeft=4;spacingRight=4;overflow=hidden;points=[[0,0.5],[1,0.5]];portConstraint=eastwest;rotatable=0;whiteSpace=wrap;html=1;fontSize=11;fontFamily=Helvetica;" vertex="1" parent="vQ2-8YrHYZbSzlKzXcPj-86">
          <mxGeometry x="2200" y="1440" width="80" height="30" as="geometry" />
        </mxCell>
        <mxCell id="vQ2-8YrHYZbSzlKzXcPj-119" value="Sync Call" style="text;strokeColor=#6c8ebf;fillColor=#dae8fc;align=left;verticalAlign=middle;spacingLeft=4;spacingRight=4;overflow=hidden;points=[[0,0.5],[1,0.5]];portConstraint=eastwest;rotatable=0;whiteSpace=wrap;html=1;fontSize=11;fontFamily=Helvetica;" vertex="1" parent="vQ2-8YrHYZbSzlKzXcPj-86">
          <mxGeometry x="2200" y="1470" width="80" height="30" as="geometry" />
        </mxCell>
        <mxCell id="vQ2-8YrHYZbSzlKzXcPj-120" value="Async Call" style="text;strokeColor=#d79b00;fillColor=#ffe6cc;align=left;verticalAlign=middle;spacingLeft=4;spacingRight=4;overflow=hidden;points=[[0,0.5],[1,0.5]];portConstraint=eastwest;rotatable=0;whiteSpace=wrap;html=1;fontSize=11;fontFamily=Helvetica;" vertex="1" parent="vQ2-8YrHYZbSzlKzXcPj-86">
          <mxGeometry x="2200" y="1500" width="80" height="30" as="geometry" />
        </mxCell>
      </root>
    </mxGraphModel>
  </diagram>
</mxfile>
